<svg width="392" height="392" xmlns="http://www.w3.org/2000/svg" xmlns:xlink="http://www.w3.org/1999/xlink" xml:space="preserve" overflow="hidden"><defs><clipPath id="clip0"><rect x="38" y="37" width="392" height="392"/></clipPath><clipPath id="clip1"><rect x="38" y="37" width="392" height="392"/></clipPath><clipPath id="clip2"><rect x="39" y="38" width="391" height="391"/></clipPath><clipPath id="clip3"><rect x="39" y="38" width="392" height="392"/></clipPath><clipPath id="clip4"><rect x="39" y="17" width="410" height="436"/></clipPath><clipPath id="clip5"><path d="M261.892 111.785C301.581 144.763 309.041 201.22 278.555 237.886 248.069 274.553 191.18 277.544 151.491 244.566 111.802 211.589 104.341 155.132 134.828 118.465 165.314 81.7988 222.203 78.808 261.892 111.785Z" fill-rule="nonzero" clip-rule="nonzero"/></clipPath></defs><g clip-path="url(#clip0)" transform="translate(-38 -37)"><g clip-path="url(#clip1)"><g clip-path="url(#clip2)"><g clip-path="url(#clip3)"><g clip-path="url(#clip4)"><path d="M388.25 215.794C388.25 322.454 301.785 408.919 195.124 408.919 88.4641 408.919 1.99895 322.454 1.99895 215.794 1.99895 109.133 88.4641 22.6681 195.124 22.6681 301.785 22.6681 388.25 109.133 388.25 215.794Z" stroke="#231F20" stroke-width="3.9979" stroke-linecap="butt" stroke-linejoin="miter" stroke-miterlimit="10" stroke-opacity="1" fill="#FFFFFF" fill-rule="nonzero" fill-opacity="1" transform="matrix(1.00034 0 0 1 39.2071 17.6626)"/><path d="" stroke="#000000" stroke-width="2.66527" stroke-linecap="round" stroke-linejoin="round" stroke-miterlimit="4" stroke-opacity="1" fill="none" fill-rule="nonzero" transform="matrix(1.00034 0 0 1 -32.4063 -40.7201)"/><path d="M266.714 90.3126C165.147 90.3126 82.8099 172.649 82.8099 274.216 82.8099 375.783 165.147 458.12 266.714 458.12 368.28 458.12 450.617 375.783 450.617 274.216 450.617 172.649 368.28 90.3126 266.714 90.3126ZM266.714 401.43C196.433 401.43 139.46 344.457 139.46 274.176 139.46 203.896 196.433 146.923 266.714 146.923 336.994 146.923 393.967 203.896 393.967 274.176 393.967 344.457 336.994 401.43 266.714 401.43Z" stroke="#231F20" stroke-width="2.66527" stroke-linecap="butt" stroke-linejoin="miter" stroke-miterlimit="10" stroke-opacity="1" fill="#231F20" fill-rule="nonzero" fill-opacity="1" transform="matrix(1.00034 0 0 1 -32.4063 -40.7201)"/><text fill="#FFFFFF" fill-opacity="1" font-family="Arial,Arial_MSFontService,sans-serif" font-style="normal" font-variant="normal" font-weight="400" font-stretch="normal" font-size="31" text-anchor="start" direction="ltr" writing-mode="lr-tb" unicode-bidi="normal" text-decoration="none" transform="matrix(0.0451288 -1.33187 1.33232 0.0451135 93.3437 241)">C</text><text fill="#FFFFFF" fill-opacity="1" font-family="Arial,Arial_MSFontService,sans-serif" font-style="normal" font-variant="normal" font-weight="400" font-stretch="normal" font-size="31" text-anchor="start" direction="ltr" writing-mode="lr-tb" unicode-bidi="normal" text-decoration="none" transform="matrix(0.266617 -1.30598 1.30642 0.266527 93.7303 219)">O</text><text fill="#FFFFFF" fill-opacity="1" font-family="Arial,Arial_MSFontService,sans-serif" font-style="normal" font-variant="normal" font-weight="400" font-stretch="normal" font-size="31" text-anchor="start" direction="ltr" writing-mode="lr-tb" unicode-bidi="normal" text-decoration="none" transform="matrix(0.506573 -1.22602 1.22644 0.506401 99.2626 192)">G</text><text fill="#FFFFFF" fill-opacity="1" font-family="Arial,Arial_MSFontService,sans-serif" font-style="normal" font-variant="normal" font-weight="400" font-stretch="normal" font-size="31" text-anchor="start" direction="ltr" writing-mode="lr-tb" unicode-bidi="normal" text-decoration="none" transform="matrix(0.719867 -1.11941 1.11979 0.719623 108.861 168)">N</text><text fill="#FFFFFF" fill-opacity="1" font-family="Arial,Arial_MSFontService,sans-serif" font-style="normal" font-variant="normal" font-weight="400" font-stretch="normal" font-size="31" text-anchor="start" direction="ltr" writing-mode="lr-tb" unicode-bidi="normal" text-decoration="none" transform="matrix(0.853175 -1.0128 1.01315 0.852886 123.538 147)">I</text><text fill="#FFFFFF" fill-opacity="1" font-family="Arial,Arial_MSFontService,sans-serif" font-style="normal" font-variant="normal" font-weight="400" font-stretch="normal" font-size="31" text-anchor="start" direction="ltr" writing-mode="lr-tb" unicode-bidi="normal" text-decoration="none" transform="matrix(0.959822 -0.919518 0.91983 0.959497 129.257 139)">T</text><text fill="#FFFFFF" fill-opacity="1" font-family="Arial,Arial_MSFontService,sans-serif" font-style="normal" font-variant="normal" font-weight="400" font-stretch="normal" font-size="31" text-anchor="start" direction="ltr" writing-mode="lr-tb" unicode-bidi="normal" text-decoration="none" transform="matrix(1.05314 -0.826233 0.826514 1.05278 143.681 126)">I</text><text fill="#FFFFFF" fill-opacity="1" font-family="Arial,Arial_MSFontService,sans-serif" font-style="normal" font-variant="normal" font-weight="400" font-stretch="normal" font-size="31" text-anchor="start" direction="ltr" writing-mode="lr-tb" unicode-bidi="normal" text-decoration="none" transform="matrix(1.13445 -0.699866 0.700104 1.13406 150.64 120)">V</text><text fill="#FFFFFF" fill-opacity="1" font-family="Arial,Arial_MSFontService,sans-serif" font-style="normal" font-variant="normal" font-weight="400" font-stretch="normal" font-size="31" text-anchor="start" direction="ltr" writing-mode="lr-tb" unicode-bidi="normal" text-decoration="none" transform="matrix(1.22437 -0.527118 0.527297 1.22395 169.423 108)">E</text><text fill="#FFFFFF" fill-opacity="1" font-family="Arial,Arial_MSFontService,sans-serif" font-style="normal" font-variant="normal" font-weight="400" font-stretch="normal" font-size="31" text-anchor="start" direction="ltr" writing-mode="lr-tb" unicode-bidi="normal" text-decoration="none" transform="matrix(1.3226 -0.166793 0.166849 1.32216 203.123 96)">D</text><text fill="#FFFFFF" fill-opacity="1" font-family="Arial,Arial_MSFontService,sans-serif" font-style="normal" font-variant="normal" font-weight="400" font-stretch="normal" font-size="31" text-anchor="start" direction="ltr" writing-mode="lr-tb" unicode-bidi="normal" text-decoration="none" transform="matrix(1.33309 0.0533054 -0.0533235 1.33263 228.199 93)">Y</text><text fill="#FFFFFF" fill-opacity="1" font-family="Arial,Arial_MSFontService,sans-serif" font-style="normal" font-variant="normal" font-weight="400" font-stretch="normal" font-size="31" text-anchor="start" direction="ltr" writing-mode="lr-tb" unicode-bidi="normal" text-decoration="none" transform="matrix(1.30576 0.268419 -0.26851 1.30532 249.182 93)">N</text><text fill="#FFFFFF" fill-opacity="1" font-family="Arial,Arial_MSFontService,sans-serif" font-style="normal" font-variant="normal" font-weight="400" font-stretch="normal" font-size="31" text-anchor="start" direction="ltr" writing-mode="lr-tb" unicode-bidi="normal" text-decoration="none" transform="matrix(1.23977 0.493075 -0.493242 1.23935 274.723 98)">A</text><text fill="#FFFFFF" fill-opacity="1" font-family="Arial,Arial_MSFontService,sans-serif" font-style="normal" font-variant="normal" font-weight="400" font-stretch="normal" font-size="31" text-anchor="start" direction="ltr" writing-mode="lr-tb" unicode-bidi="normal" text-decoration="none" transform="matrix(1.11979 0.732949 -0.733198 1.11941 297.106 107)">M</text><text fill="#FFFFFF" fill-opacity="1" font-family="Arial,Arial_MSFontService,sans-serif" font-style="normal" font-variant="normal" font-weight="400" font-stretch="normal" font-size="31" text-anchor="start" direction="ltr" writing-mode="lr-tb" unicode-bidi="normal" text-decoration="none" transform="matrix(0.998886 0.882508 -0.882807 0.998547 323.661 125)">I</text><text fill="#FFFFFF" fill-opacity="1" font-family="Arial,Arial_MSFontService,sans-serif" font-style="normal" font-variant="normal" font-weight="400" font-stretch="normal" font-size="31" text-anchor="start" direction="ltr" writing-mode="lr-tb" unicode-bidi="normal" text-decoration="none" transform="matrix(0.891144 0.991118 -0.991454 0.890842 330.793 130)">C</text><text fill="#FFFFFF" fill-opacity="1" font-family="Arial,Arial_MSFontService,sans-serif" font-style="normal" font-variant="normal" font-weight="400" font-stretch="normal" font-size="31" text-anchor="start" direction="ltr" writing-mode="lr-tb" unicode-bidi="normal" text-decoration="none" transform="matrix(0.733256 1.11293 -1.11331 0.733008 346.097 148)">S</text><text fill="#FFFFFF" fill-opacity="1" font-family="Arial,Arial_MSFontService,sans-serif" font-style="normal" font-variant="normal" font-weight="400" font-stretch="normal" font-size="31" text-anchor="start" direction="ltr" writing-mode="lr-tb" unicode-bidi="normal" text-decoration="none" transform="matrix(0.432031 1.26071 -1.26114 0.431884 364.227 179)">L</text><text fill="#FFFFFF" fill-opacity="1" font-family="Arial,Arial_MSFontService,sans-serif" font-style="normal" font-variant="normal" font-weight="400" font-stretch="normal" font-size="31" text-anchor="start" direction="ltr" writing-mode="lr-tb" unicode-bidi="normal" text-decoration="none" transform="matrix(0.239956 1.30598 -1.30642 0.239874 370.519 196)">A</text><text fill="#FFFFFF" fill-opacity="1" font-family="Arial,Arial_MSFontService,sans-serif" font-style="normal" font-variant="normal" font-weight="400" font-stretch="normal" font-size="31" text-anchor="start" direction="ltr" writing-mode="lr-tb" unicode-bidi="normal" text-decoration="none" transform="matrix(0.0266617 1.33263 -1.33309 0.0266527 374.772 220)">B</text><text fill="#FFFFFF" fill-opacity="1" font-family="Arial,Arial_MSFontService,sans-serif" font-style="normal" font-variant="normal" font-weight="400" font-stretch="normal" font-size="25" text-anchor="start" direction="ltr" writing-mode="lr-tb" unicode-bidi="normal" text-decoration="none" transform="matrix(0.653212 1.17272 -1.17312 0.639665 83.9988 306)">U</text><text fill="#FFFFFF" fill-opacity="1" font-family="Arial,Arial_MSFontService,sans-serif" font-style="normal" font-variant="normal" font-weight="400" font-stretch="normal" font-size="25" text-anchor="start" direction="ltr" writing-mode="lr-tb" unicode-bidi="normal" text-decoration="none" transform="matrix(0.812919 1.07295 -1.06269 0.804598 95.6366 327)">N</text><text fill="#FFFFFF" fill-opacity="1" font-family="Arial,Arial_MSFontService,sans-serif" font-style="normal" font-variant="normal" font-weight="400" font-stretch="normal" font-size="25" text-anchor="start" direction="ltr" writing-mode="lr-tb" unicode-bidi="normal" text-decoration="none" transform="matrix(0.915329 0.987093 -0.977651 0.905958 110.181 345)">I</text><text fill="#FFFFFF" fill-opacity="1" font-family="Arial,Arial_MSFontService,sans-serif" font-style="normal" font-variant="normal" font-weight="400" font-stretch="normal" font-size="25" text-anchor="start" direction="ltr" writing-mode="lr-tb" unicode-bidi="normal" text-decoration="none" transform="matrix(0.999815 0.906192 -0.893168 0.98615 116.366 352)">V</text><text fill="#FFFFFF" fill-opacity="1" font-family="Arial,Arial_MSFontService,sans-serif" font-style="normal" font-variant="normal" font-weight="400" font-stretch="normal" font-size="25" text-anchor="start" direction="ltr" writing-mode="lr-tb" unicode-bidi="normal" text-decoration="none" transform="matrix(1.09313 0.772928 -0.77319 1.09276 131.643 366)">E</text><text fill="#FFFFFF" fill-opacity="1" font-family="Arial,Arial_MSFontService,sans-serif" font-style="normal" font-variant="normal" font-weight="400" font-stretch="normal" font-size="25" text-anchor="start" direction="ltr" writing-mode="lr-tb" unicode-bidi="normal" text-decoration="none" transform="matrix(1.17312 0.639665 -0.639881 1.17272 146.521 376)">R</text><text fill="#FFFFFF" fill-opacity="1" font-family="Arial,Arial_MSFontService,sans-serif" font-style="normal" font-variant="normal" font-weight="400" font-stretch="normal" font-size="25" text-anchor="start" direction="ltr" writing-mode="lr-tb" unicode-bidi="normal" text-decoration="none" transform="matrix(1.23977 0.506401 -0.506573 1.23935 163.891 386)">S</text><text fill="#FFFFFF" fill-opacity="1" font-family="Arial,Arial_MSFontService,sans-serif" font-style="normal" font-variant="normal" font-weight="400" font-stretch="normal" font-size="25" text-anchor="start" direction="ltr" writing-mode="lr-tb" unicode-bidi="normal" text-decoration="none" transform="matrix(1.28059 0.415702 -0.411725 1.26748 180.541 392)">I</text><text fill="#FFFFFF" fill-opacity="1" font-family="Arial,Arial_MSFontService,sans-serif" font-style="normal" font-variant="normal" font-weight="400" font-stretch="normal" font-size="25" text-anchor="start" direction="ltr" writing-mode="lr-tb" unicode-bidi="normal" text-decoration="none" transform="matrix(1.30642 0.29318 -0.293279 1.29266 189.099 395)">T</text><text fill="#FFFFFF" fill-opacity="1" font-family="Arial,Arial_MSFontService,sans-serif" font-style="normal" font-variant="normal" font-weight="400" font-stretch="normal" font-size="25" text-anchor="start" direction="ltr" writing-mode="lr-tb" unicode-bidi="normal" text-decoration="none" transform="matrix(1.33935 0.137653 -0.136337 1.32565 208.069 399)">Y</text><text fill="#FFFFFF" fill-opacity="1" font-family="Arial,Arial_MSFontService,sans-serif" font-style="normal" font-variant="normal" font-weight="400" font-stretch="normal" font-size="25" text-anchor="start" direction="ltr" writing-mode="lr-tb" unicode-bidi="normal" text-decoration="none" transform="matrix(1.34642 -0.106611 0.106647 1.33263 235.944 401)">O</text><text fill="#FFFFFF" fill-opacity="1" font-family="Arial,Arial_MSFontService,sans-serif" font-style="normal" font-variant="normal" font-weight="400" font-stretch="normal" font-size="25" text-anchor="start" direction="ltr" writing-mode="lr-tb" unicode-bidi="normal" text-decoration="none" transform="matrix(1.31976 -0.279853 0.279948 1.30598 260.886 399)">F</text><text fill="#FFFFFF" fill-opacity="1" font-family="Arial,Arial_MSFontService,sans-serif" font-style="normal" font-variant="normal" font-weight="400" font-stretch="normal" font-size="25" text-anchor="start" direction="ltr" writing-mode="lr-tb" unicode-bidi="normal" text-decoration="none" transform="matrix(1.24473 -0.513123 0.508215 1.23199 286.201 393)">O</text><text fill="#FFFFFF" fill-opacity="1" font-family="Arial,Arial_MSFontService,sans-serif" font-style="normal" font-variant="normal" font-weight="400" font-stretch="normal" font-size="25" text-anchor="start" direction="ltr" writing-mode="lr-tb" unicode-bidi="normal" text-decoration="none" transform="matrix(1.16474 -0.675217 0.668759 1.15281 309.264 383)">R</text><text fill="#FFFFFF" fill-opacity="1" font-family="Arial,Arial_MSFontService,sans-serif" font-style="normal" font-variant="normal" font-weight="400" font-stretch="normal" font-size="25" text-anchor="start" direction="ltr" writing-mode="lr-tb" unicode-bidi="normal" text-decoration="none" transform="matrix(1.0798 -0.799581 0.799852 1.06611 326.247 373)">E</text><text fill="#FFFFFF" fill-opacity="1" font-family="Arial,Arial_MSFontService,sans-serif" font-style="normal" font-variant="normal" font-weight="400" font-stretch="normal" font-size="25" text-anchor="start" direction="ltr" writing-mode="lr-tb" unicode-bidi="normal" text-decoration="none" transform="matrix(0.973153 -0.932844 0.91983 0.959497 341.005 362)">G</text><text fill="#FFFFFF" fill-opacity="1" font-family="Arial,Arial_MSFontService,sans-serif" font-style="normal" font-variant="normal" font-weight="400" font-stretch="normal" font-size="25" text-anchor="start" direction="ltr" writing-mode="lr-tb" unicode-bidi="normal" text-decoration="none" transform="matrix(0.826514 -1.06611 1.05314 0.812907 358.161 346)">O</text><text fill="#FFFFFF" fill-opacity="1" font-family="Arial,Arial_MSFontService,sans-serif" font-style="normal" font-variant="normal" font-weight="400" font-stretch="normal" font-size="25" text-anchor="start" direction="ltr" writing-mode="lr-tb" unicode-bidi="normal" text-decoration="none" transform="matrix(0.662189 -1.17193 1.16072 0.655411 373.545 326)">N</text><path d="" stroke="#231F20" stroke-width="1.33263" stroke-linecap="butt" stroke-linejoin="miter" stroke-miterlimit="10" stroke-opacity="1" fill="none" fill-rule="nonzero" transform="matrix(1.00034 0 0 1 -32.4063 -40.7201)"/><g clip-path="url(#clip5)"><path d="" stroke="#231F20" stroke-width="2.66527" stroke-linecap="round" stroke-linejoin="round" stroke-miterlimit="4" stroke-opacity="1" fill="none" fill-rule="nonzero" transform="matrix(1.00034 0 0 1 -32.4063 -40.7201)"/><path d="" stroke="#231F20" stroke-width="1.33263" stroke-linecap="butt" stroke-linejoin="miter" stroke-miterlimit="10" stroke-opacity="1" fill="none" fill-rule="nonzero" transform="matrix(1.00034 0 0 1 -32.4063 -40.7201)"/><path d="M344.886 243.392C327.948 252.481 314.049 224.576 297.111 233.678 280.173 242.779 294.072 270.685 277.121 279.773 260.17 288.862 246.284 260.97 229.333 270.072 212.382 279.174 226.295 307.079 209.344 316.168" stroke="#231F20" stroke-width="1.59916" stroke-linecap="butt" stroke-linejoin="miter" stroke-miterlimit="10" stroke-opacity="1" fill="none" fill-rule="nonzero" transform="matrix(1.00034 0 0 1 -32.4063 -40.7201)"/><path d="M333.345 222.363C316.594 231.465 302.841 203.547 286.09 212.649 269.339 221.75 283.092 249.656 266.34 258.758 249.589 267.86 235.876 239.941 219.085 249.043 202.294 258.145 216.073 286.05 199.322 295.152" stroke="#231F20" stroke-width="1.59916" stroke-linecap="butt" stroke-linejoin="miter" stroke-miterlimit="10" stroke-opacity="1" fill="none" fill-rule="nonzero" transform="matrix(1.00034 0 0 1 -32.4063 -40.7201)"/><path d="M325.922 299.843C310.69 307.839 261.956 212.369 246.671 220.351 231.385 228.334 280.213 323.764 264.981 331.733" stroke="#231F20" stroke-width="1.59916" stroke-linecap="butt" stroke-linejoin="miter" stroke-miterlimit="10" stroke-opacity="1" fill="none" fill-rule="nonzero" transform="matrix(1.00034 0 0 1 -32.4063 -40.7201)"/><path d="M320.845 289.821C305.6 297.817 256.879 202.361 241.58 210.33 226.281 218.299 275.122 313.742 259.89 321.725" stroke="#231F20" stroke-width="1.59916" stroke-linecap="butt" stroke-linejoin="miter" stroke-miterlimit="10" stroke-opacity="1" fill="none" fill-rule="nonzero" transform="matrix(1.00034 0 0 1 -32.4063 -40.7201)"/><path d="M315.355 279.094C300.123 287.089 251.388 191.633 236.09 199.602 220.791 207.571 269.645 303.014 254.413 310.997" stroke="#231F20" stroke-width="1.59916" stroke-linecap="butt" stroke-linejoin="miter" stroke-miterlimit="10" stroke-opacity="1" fill="none" fill-rule="nonzero" transform="matrix(1.00034 0 0 1 -32.4063 -40.7201)"/><path d="M309.758 268.153C294.526 276.149 245.791 180.679 230.506 188.661 215.221 196.644 265.741 298.244 250.495 306.226" stroke="#231F20" stroke-width="1.59916" stroke-linecap="butt" stroke-linejoin="miter" stroke-miterlimit="10" stroke-opacity="1" fill="none" fill-rule="nonzero" transform="matrix(1.00034 0 0 1 -32.4063 -40.7201)"/><path d="M331.226 310.144C315.994 318.14 267.26 222.683 251.975 230.652 236.689 238.622 285.517 334.065 270.285 342.047" stroke="#231F20" stroke-width="1.59916" stroke-linecap="butt" stroke-linejoin="miter" stroke-miterlimit="10" stroke-opacity="1" fill="none" fill-rule="nonzero" transform="matrix(1.00034 0 0 1 -32.4063 -40.7201)"/><path d="M257.372 317.913C241.02 324.51 220.058 283.052 203.72 289.635 187.382 296.218 227.121 356.093 210.756 362.677" stroke="#231F20" stroke-width="1.59916" stroke-linecap="butt" stroke-linejoin="miter" stroke-miterlimit="10" stroke-opacity="1" fill="none" fill-rule="nonzero" transform="matrix(1.00034 0 0 1 -32.4063 -40.7201)"/><path d="M255.959 309.598C239.594 316.181 214.847 275.176 198.483 281.759 182.118 288.342 221.884 348.217 205.532 354.801" stroke="#231F20" stroke-width="1.59916" stroke-linecap="butt" stroke-linejoin="miter" stroke-miterlimit="10" stroke-opacity="1" fill="none" fill-rule="nonzero" transform="matrix(1.00034 0 0 1 -32.4063 -40.7201)"/><path d="M253.014 302.415C236.649 308.998 209.21 266.687 192.846 273.27 176.481 279.853 216.247 339.729 199.895 346.312" stroke="#231F20" stroke-width="1.59916" stroke-linecap="butt" stroke-linejoin="miter" stroke-miterlimit="10" stroke-opacity="1" fill="none" fill-rule="nonzero" transform="matrix(1.00034 0 0 1 -32.4063 -40.7201)"/><path d="M253.4 298.417C237.049 305 203.453 258.025 187.089 264.608 170.724 271.191 210.49 331.066 194.138 337.65" stroke="#231F20" stroke-width="1.59916" stroke-linecap="butt" stroke-linejoin="miter" stroke-miterlimit="10" stroke-opacity="1" fill="none" fill-rule="nonzero" transform="matrix(1.00034 0 0 1 -32.4063 -40.7201)"/><path d="M367.327 240.78C350.003 249.856 318.26 187.822 300.896 196.91 283.531 205.999 314.728 268.619 297.377 277.708" stroke="#231F20" stroke-width="1.59916" stroke-linecap="butt" stroke-linejoin="miter" stroke-miterlimit="10" stroke-opacity="1" fill="none" fill-rule="nonzero" transform="matrix(1.00034 0 0 1 -32.4063 -40.7201)"/><path d="M361.73 229.84C344.406 238.915 312.663 176.881 295.299 185.969 277.934 195.058 310.051 256.705 292.633 265.794" stroke="#231F20" stroke-width="1.59916" stroke-linecap="butt" stroke-linejoin="miter" stroke-miterlimit="10" stroke-opacity="1" fill="none" fill-rule="nonzero" transform="matrix(1.00034 0 0 1 -32.4063 -40.7201)"/><path d="M355.707 218.046C338.383 227.121 306.639 165.087 289.275 174.175 271.911 183.264 303.627 245.298 286.263 254.387" stroke="#231F20" stroke-width="1.59916" stroke-linecap="butt" stroke-linejoin="miter" stroke-miterlimit="10" stroke-opacity="1" fill="none" fill-rule="nonzero" transform="matrix(1.00034 0 0 1 -32.4063 -40.7201)"/><path d="M349.55 205.705C332.226 214.874 300.482 152.333 283.118 161.489 265.754 170.644 297.471 233.184 280.106 242.353" stroke="#231F20" stroke-width="1.59916" stroke-linecap="butt" stroke-linejoin="miter" stroke-miterlimit="10" stroke-opacity="1" fill="none" fill-rule="nonzero" transform="matrix(1.00034 0 0 1 -32.4063 -40.7201)"/><path d="M373.138 252.174C355.813 261.263 324.07 199.229 306.706 208.317 289.342 217.406 321.058 279.44 303.707 288.529" stroke="#231F20" stroke-width="1.59916" stroke-linecap="butt" stroke-linejoin="miter" stroke-miterlimit="10" stroke-opacity="1" fill="none" fill-rule="nonzero" transform="matrix(1.00034 0 0 1 -32.4063 -40.7201)"/><path d="M316.834 318.673C309.078 322.737 277.361 260.703 269.619 264.755 261.876 268.806 293.606 330.853 285.823 334.904" stroke="#231F20" stroke-width="1.33263" stroke-linecap="butt" stroke-linejoin="miter" stroke-miterlimit="10" stroke-opacity="1" fill="none" fill-rule="nonzero" transform="matrix(1.00034 0 0 1 -32.4063 -40.7201)"/></g><path d="M321.845 354.827C334.824 356.067 341.554 349.297 339.822 336.49 339.542 334.478 339.262 332.492 340.501 330.76 343.473 326.655 347.271 322.764 343.047 317.3 342.86 317.06 342.9 316.274 343.047 316.168 349.377 312.356 349.19 307.332 346.978 300.976 345.952 298.044 349.643 295.912 352.309 294.206 361.331 288.475 361.637 286.53 355.227 278.361 352.249 274.548 349.683 270.43 347.578 266.074 345.152 261.143 344.606 256.372 347.125 251.015 352.962 238.555 349.683 226.308 344.286 214.794 335.274 196.21 321.27 180.5 303.841 169.418 323.031 198.456 327.895 231.412 313.556 257.891 292.393 296.938 233.171 318.433 184.97 285.997 184.903 285.997 184.783 285.997 184.796 286.077 185.356 290.168 193.992 304.907 195.764 308.118 199.375 314.635 201.095 326.575 197.83 339.249 196.124 345.779 196.737 350.869 201.308 356.013 215.62 372.098 231.865 385.118 253.147 390.662 254.2 390.928 255.253 391.315 256.319 391.475 267.74 393.074 267.78 392.981 270.711 381.76 273.377 371.525 276.708 361.61 283.132 352.948" fill="#231F20" fill-rule="nonzero" fill-opacity="1" transform="matrix(1.00034 0 0 1 -32.4063 -40.7201)"/><path d="" stroke="#000000" stroke-width="2.66527" stroke-linecap="round" stroke-linejoin="round" stroke-miterlimit="4" stroke-opacity="1" fill="none" fill-rule="nonzero" transform="matrix(1.00034 0 0 1 -32.4063 -40.7201)"/><path d="M47.6284 252.268C47.6284 254.167 46.089 255.706 44.1902 255.706 42.2913 255.706 40.752 254.167 40.752 252.268 40.752 250.369 42.2913 248.83 44.1902 248.83 46.089 248.83 47.6284 250.369 47.6284 252.268Z" fill="#FFFFFF" fill-rule="nonzero" fill-opacity="1" transform="matrix(1.00034 0 0 1 39.2071 17.6626)"/><path d="M350.096 252.268C350.096 254.167 348.557 255.706 346.658 255.706 344.759 255.706 343.22 254.167 343.22 252.268 343.22 250.369 344.759 248.83 346.658 248.83 348.557 248.83 350.096 250.369 350.096 252.268Z" fill="#FFFFFF" fill-rule="nonzero" fill-opacity="1" transform="matrix(1.00034 0 0 1 39.2071 17.6626)"/></g></g></g></g></g></svg>